# xmcd CD database file
#
# Track frame offsets:
#	183
#	14765
#	31635
#	41655
#	51660
#	74305
#	99078
#	127845
#	142880
#	158790
#	186178
#	201458
#	223318
#	228490
#	242828
#	247923
#	252468
#	262503
#	273318
#	302133
#	324703
#	327418
#	336833
#	342385
#
# Disc length: 4863 seconds
#
# Revision: 7
# Processed by: cddbd v1.5.2PL0 Copyright (c) Steve Scherf et al.
# Submitted via: CDex 1.75
#
DISCID=6712fd18
DTITLE=Valery Gergiev - Kirov Orchestra / Tchaikovsky - The Nutcracker 
DYEAR=1998
DGENRE=Classical
TTITLE0=Overture
TTITLE1=Act I Scene 1, The Christmas Tree
TTITLE2=Act I Scene 1, March
TTITLE3=Act I Scene 1, Galop and Dance of the Parents
TTITLE4=Act I Scene 1, Dance Scene - The Presents of Drosselmeyer
TTITLE5=Act I Scene 1, Grandfather Dance
TTITLE6=Act I Scene 1, Clara and the Nutcracker
TTITLE7=Act I Scene 1, The Nutcracker battles against the Army of the Mouse King - He wins and is transformed into Prince Charming
TTITLE8=Act I Scene 2, In the Christmas Tree
TTITLE9=Act I Scene 2, Scene and Waltz of the Snowflakes
TTITLE10=Act II, The Magic Castle on the Mountain of Sweets
TTITLE11=Act II, Clara and Prince Charming
TTITLE12=Act II, Character Dances - a. Chocolate (Spanish Dance)
TTITLE13=Act II, Character Dances - b. Coffee (Arabian Dance)
TTITLE14=Act II, Character Dances - c. Tea (Chinese Dance)
TTITLE15=Act II, Character Dances - d. Trepak (Russian Dance)
TTITLE16=Act II, Character Dances - e. Dance of the Reed Pipes
TTITLE17=Act II, Character Dances - f. Polichinelle (The Clown)
TTITLE18=Act II, Waltz of the Flowers
TTITLE19=Act II, Pas de deux - Intrada
TTITLE20=Act II, Pas de deux - Trantella
TTITLE21=Act II, Pas de deux - Dance of the Sugar-Plum Fairy
TTITLE22=Act II, Pas de deux - Coda
TTITLE23=Act II, Closing Waltz - Grand Finale
EXTD= YEAR: 1998
EXTT0=
EXTT1=
EXTT2=
EXTT3=
EXTT4=
EXTT5=
EXTT6=
EXTT7=
EXTT8=
EXTT9=
EXTT10=
EXTT11=
EXTT12=
EXTT13=
EXTT14=
EXTT15=
EXTT16=
EXTT17=
EXTT18=
EXTT19=
EXTT20=
EXTT21=
EXTT22=
EXTT23=
PLAYORDER=
.
